<svg xmlns="http://www.w3.org/2000/svg" viewBox="0 0 32 32" width="32" height="32" role="img" aria-label="Idara">
  <!-- Idara logomark — the "lit star". 8-pointed khatim with facet rays + bright core. -->
  <defs>
    <linearGradient id="idr-body" x1="6" y1="3" x2="26" y2="29" gradientUnits="userSpaceOnUse">
      <stop offset="0" stop-color="#d97706"/>
      <stop offset="1" stop-color="#a3450a"/>
    </linearGradient>
  </defs>
  <path fill="url(#idr-body)" d="M16 1 L20.394 5.393 L26.607 5.393 L26.607 11.606 L31 16 L26.607 20.394 L26.607 26.607 L20.394 26.607 L16 31 L11.606 26.607 L5.393 26.607 L5.393 20.394 L1 16 L5.393 11.606 L5.393 5.393 L11.606 5.393Z"/>
  <path fill="none" stroke="#fde68a" stroke-width="0.5" stroke-linecap="round" opacity="0.45" d="M16 16L16 1M16 16L26.607 5.393M16 16L31 16M16 16L26.607 26.607M16 16L16 31M16 16L5.393 26.607M16 16L1 16M16 16L5.393 5.393"/>
  <circle cx="16" cy="16" r="2.3" fill="#fef3c7"/>
</svg>
