<svg xmlns="http://www.w3.org/2000/svg" viewBox="0 0 256 256" width="256" height="256" role="img" aria-label="Idara">
  <!-- WP.org / app icon — amber star glowing on ink. -->
  <defs>
    <linearGradient id="idr-body-d" x1="48" y1="15" x2="208" y2="241" gradientUnits="userSpaceOnUse">
      <stop offset="0" stop-color="#f59e0b"/>
      <stop offset="1" stop-color="#b45309"/>
    </linearGradient>
    <radialGradient id="idr-glow" cx="128" cy="128" r="104" gradientUnits="userSpaceOnUse">
      <stop offset="0" stop-color="#f59e0b" stop-opacity="0.45"/>
      <stop offset="0.6" stop-color="#b45309" stop-opacity="0.12"/>
      <stop offset="1" stop-color="#b45309" stop-opacity="0"/>
    </radialGradient>
  </defs>
  <rect width="256" height="256" rx="56" fill="#0a0a0f"/>
  <rect x="0.75" y="0.75" width="254.5" height="254.5" rx="55.25" fill="none" stroke="#ffffff" stroke-opacity="0.06" stroke-width="1.5"/>
  <circle cx="128" cy="128" r="104" fill="url(#idr-glow)"/>
  <g transform="translate(48 48) scale(5)">
    <path fill="url(#idr-body-d)" d="M16 1 L20.394 5.393 L26.607 5.393 L26.607 11.606 L31 16 L26.607 20.394 L26.607 26.607 L20.394 26.607 L16 31 L11.606 26.607 L5.393 26.607 L5.393 20.394 L1 16 L5.393 11.606 L5.393 5.393 L11.606 5.393Z"/>
    <path fill="none" stroke="#fde68a" stroke-width="0.5" stroke-linecap="round" opacity="0.5" d="M16 16L16 1M16 16L26.607 5.393M16 16L31 16M16 16L26.607 26.607M16 16L16 31M16 16L5.393 26.607M16 16L1 16M16 16L5.393 5.393"/>
    <circle cx="16" cy="16" r="2.3" fill="#fffbeb"/>
  </g>
</svg>
